<!DOCTYPE svg PUBLIC "-//W3C//DTD SVG 1.1//EN" "http://www.w3.org/Graphics/SVG/1.1/DTD/svg11.dtd">
<svg aria-hidden="true" style="position: absolute; width: 0; height: 0; overflow: hidden;" version="1.1"
    xmlns="http://www.w3.org/2000/svg" xmlns:xlink="http://www.w3.org/1999/xlink">
    <defs>
        <symbol id="icon-menu" viewBox="0 0 32 32">
            <title>Mobile Menu</title>
            <path d="M2 6h28v6h-28zM2 14h28v6h-28zM2 22h28v6h-28z"></path>
        </symbol>

        <symbol id="icon-plus" viewBox="0 0 32 32">
            <title>Add</title>
            <path
                d="M31 12h-11v-11c0-0.552-0.448-1-1-1h-6c-0.552 0-1 0.448-1 1v11h-11c-0.552 0-1 0.448-1 1v6c0 0.552 0.448 1 1 1h11v11c0 0.552 0.448 1 1 1h6c0.552 0 1-0.448 1-1v-11h11c0.552 0 1-0.448 1-1v-6c0-0.552-0.448-1-1-1z">
            </path>
        </symbol>

        <symbol id="icon-pencil" viewBox="0 0 32 32">
            <title>Edit</title>
            <path
                d="M27 0c2.761 0 5 2.239 5 5 0 1.126-0.372 2.164-1 3l-2 2-7-7 2-2c0.836-0.628 1.874-1 3-1zM2 23l-2 9 9-2 18.5-18.5-7-7-18.5 18.5zM22.362 11.362l-14 14-1.724-1.724 14-14 1.724 1.724z">
            </path>
        </symbol>

        <symbol id="icon-bin2" viewBox="0 0 32 32">
            <title>Delete</title>
            <path d="M6 32h20l2-22h-24zM20 4v-4h-8v4h-10v6l2-2h24l2 2v-6h-10zM18 4h-4v-2h4v2z"></path>
        </symbol>

        <symbol id="icon-home" viewBox="0 0 32 32">
            <title>Home</title>
            <path d="M32 18.451l-16-12.42-16 12.42v-5.064l16-12.42 16 12.42zM28 18v12h-8v-8h-8v8h-8v-12l12-9z"></path>
        </symbol>

        <symbol id="icon-users" viewBox="0 0 36 32">
            <title>Users</title>
            <path
                d="M24 24.082v-1.649c2.203-1.241 4-4.337 4-7.432 0-4.971 0-9-6-9s-6 4.029-6 9c0 3.096 1.797 6.191 4 7.432v1.649c-6.784 0.555-12 3.888-12 7.918h28c0-4.030-5.216-7.364-12-7.918z">
            </path>
            <path
                d="M10.225 24.854c1.728-1.13 3.877-1.989 6.243-2.513-0.47-0.556-0.897-1.176-1.265-1.844-0.95-1.726-1.453-3.627-1.453-5.497 0-2.689 0-5.228 0.956-7.305 0.928-2.016 2.598-3.265 4.976-3.734-0.529-2.39-1.936-3.961-5.682-3.961-6 0-6 4.029-6 9 0 3.096 1.797 6.191 4 7.432v1.649c-6.784 0.555-12 3.888-12 7.918h8.719c0.454-0.403 0.956-0.787 1.506-1.146z">
            </path>
        </symbol>

        <symbol id="icon-newspaper" viewBox="0 0 32 32">
            <title>Blog Posts</title>
            <path
                d="M28 8v-4h-28v22c0 1.105 0.895 2 2 2h27c1.657 0 3-1.343 3-3v-17h-4zM26 26h-24v-20h24v20zM4 10h20v2h-20zM16 14h8v2h-8zM16 18h8v2h-8zM16 22h6v2h-6zM4 14h10v10h-10z">
            </path>
        </symbol>

        <symbol id="icon-rocket" viewBox="0 0 32 32">
            <title>Projects</title>
            <path
                d="M22 2l-10 10h-6l-6 8c0 0 6.357-1.77 10.065-0.94l-10.065 12.94 13.184-10.255c1.839 4.208-1.184 10.255-1.184 10.255l8-6v-6l10-10 2-10-10 2z">
            </path>
        </symbol>

        <symbol id="icon-earth" viewBox="0 0 32 32">
            <title>Area</title>
            <path
                d="M16 0c-8.837 0-16 7.163-16 16s7.163 16 16 16 16-7.163 16-16-7.163-16-16-16zM16 30c-1.967 0-3.84-0.407-5.538-1.139l7.286-8.197c0.163-0.183 0.253-0.419 0.253-0.664v-3c0-0.552-0.448-1-1-1-3.531 0-7.256-3.671-7.293-3.707-0.188-0.188-0.442-0.293-0.707-0.293h-4c-0.552 0-1 0.448-1 1v6c0 0.379 0.214 0.725 0.553 0.894l3.447 1.724v5.871c-3.627-2.53-6-6.732-6-11.489 0-2.147 0.484-4.181 1.348-6h3.652c0.265 0 0.52-0.105 0.707-0.293l4-4c0.188-0.188 0.293-0.442 0.293-0.707v-2.419c1.268-0.377 2.61-0.581 4-0.581 2.2 0 4.281 0.508 6.134 1.412-0.13 0.109-0.256 0.224-0.376 0.345-1.133 1.133-1.757 2.64-1.757 4.243s0.624 3.109 1.757 4.243c1.139 1.139 2.663 1.758 4.239 1.758 0.099 0 0.198-0.002 0.297-0.007 0.432 1.619 1.211 5.833-0.263 11.635-0.014 0.055-0.022 0.109-0.026 0.163-2.541 2.596-6.084 4.208-10.004 4.208z">
            </path>
        </symbol>

        <symbol id="icon-lab" viewBox="0 0 32 32">
            <title>Resources</title>
            <path
                d="M29.884 25.14l-9.884-16.47v-6.671h1c0.55 0 1-0.45 1-1s-0.45-1-1-1h-10c-0.55 0-1 0.45-1 1s0.45 1 1 1h1v6.671l-9.884 16.47c-2.264 3.773-0.516 6.86 3.884 6.86h20c4.4 0 6.148-3.087 3.884-6.86zM7.532 20l6.468-10.779v-7.221h4v7.221l6.468 10.779h-16.935z">
            </path>
        </symbol>

        <symbol id="icon-drawer" viewBox="0 0 32 32">
            <title>Archive</title>
            <path
                d="M31.781 20.375l-8-10c-0.19-0.237-0.477-0.375-0.781-0.375h-14c-0.304 0-0.591 0.138-0.781 0.375l-8 10c-0.142 0.177-0.219 0.398-0.219 0.625v9c0 1.105 0.895 2 2 2h28c1.105 0 2-0.895 2-2v-9c0-0.227-0.077-0.447-0.219-0.625zM30 22h-7l-4 4h-6l-4-4h-7v-0.649l7.481-9.351h13.039l7.481 9.351v0.649z">
            </path>
            <path d="M23 16h-14c-0.552 0-1-0.448-1-1s0.448-1 1-1h14c0.552 0 1 0.448 1 1s-0.448 1-1 1z"></path>
            <path d="M25 20h-18c-0.552 0-1-0.448-1-1s0.448-1 1-1h18c0.552 0 1 0.448 1 1s-0.448 1-1 1z"></path>
        </symbol>

        <symbol id="icon-github-mark" viewBox="0 0 33 32">
            <title>GitHub</title>
            <path
                d="M16.285 0c-9.005 0-16.285 7.333-16.285 16.406 0 7.252 4.664 13.391 11.135 15.563 0.809 0.163 1.105-0.353 1.105-0.787 0-0.38-0.027-1.684-0.027-3.042-4.53 0.978-5.473-1.956-5.473-1.956-0.728-1.901-1.807-2.39-1.807-2.39-1.483-1.005 0.108-1.005 0.108-1.005 1.645 0.109 2.508 1.684 2.508 1.684 1.456 2.499 3.801 1.793 4.745 1.358 0.135-1.059 0.566-1.793 1.025-2.2-3.613-0.38-7.414-1.793-7.414-8.094 0-1.793 0.647-3.259 1.671-4.4-0.162-0.407-0.728-2.092 0.162-4.346 0 0 1.375-0.435 4.475 1.684 1.221-0.343 2.622-0.542 4.070-0.543h0.001c1.375 0 2.777 0.19 4.071 0.543 3.101-2.119 4.476-1.684 4.476-1.684 0.89 2.254 0.323 3.939 0.162 4.346 1.052 1.141 1.672 2.607 1.672 4.4 0 6.302-3.801 7.687-7.441 8.094 0.593 0.516 1.105 1.494 1.105 3.042 0 2.2-0.027 3.966-0.027 4.509 0 0.435 0.297 0.951 1.105 0.788 6.471-2.173 11.135-8.312 11.135-15.564 0.027-9.072-7.28-16.406-16.258-16.406z">
            </path>
        </symbol>

        <symbol id="icon-x" viewBox="0 0 32 32">
            <title>X</title>
            <path
                d="M24.325 3h4.411l-9.636 11.013 11.336 14.987h-8.876l-6.952-9.089-7.955 9.089h-4.413l10.307-11.78-10.875-14.22h9.101l6.284 8.308zM22.777 26.36h2.444l-15.776-20.859h-2.623z">
            </path>
        </symbol>

        <symbol id="icon-facebook2" viewBox="0 0 32 32">
            <title>Facebook</title>
            <path
                d="M29 0h-26c-1.65 0-3 1.35-3 3v26c0 1.65 1.35 3 3 3h13v-14h-4v-4h4v-2c0-3.306 2.694-6 6-6h4v4h-4c-1.1 0-2 0.9-2 2v2h6l-1 4h-5v14h9c1.65 0 3-1.35 3-3v-26c0-1.65-1.35-3-3-3z">
            </path>
        </symbol>

        <symbol id="icon-youtube" viewBox="0 0 32 32">
            <title>Youtube</title>
            <path
                d="M31.681 9.6c0 0-0.313-2.206-1.275-3.175-1.219-1.275-2.581-1.281-3.206-1.356-4.475-0.325-11.194-0.325-11.194-0.325h-0.012c0 0-6.719 0-11.194 0.325-0.625 0.075-1.987 0.081-3.206 1.356-0.963 0.969-1.269 3.175-1.269 3.175s-0.319 2.588-0.319 5.181v2.425c0 2.587 0.319 5.181 0.319 5.181s0.313 2.206 1.269 3.175c1.219 1.275 2.819 1.231 3.531 1.369 2.563 0.244 10.881 0.319 10.881 0.319s6.725-0.012 11.2-0.331c0.625-0.075 1.988-0.081 3.206-1.356 0.962-0.969 1.275-3.175 1.275-3.175s0.319-2.587 0.319-5.181v-2.425c-0.006-2.588-0.325-5.181-0.325-5.181zM12.694 20.15v-8.994l8.644 4.513-8.644 4.481z">
            </path>
        </symbol>

        <symbol id="icon-behance2" viewBox="0 0 32 32">
            <title>Behance</title>
            <path
                d="M12.631 14.019c0.406-0.294 0.6-0.781 0.6-1.456 0-0.375-0.063-0.681-0.194-0.919-0.137-0.238-0.313-0.425-0.544-0.556-0.225-0.137-0.481-0.231-0.775-0.281-0.287-0.056-0.594-0.081-0.906-0.081h-3.294v3.737h3.563c0.625 0.006 1.144-0.144 1.55-0.444z">
            </path>
            <path
                d="M13.188 17.394c-0.463-0.35-1.075-0.525-1.838-0.525h-3.831v4.406h3.756c0.35 0 0.675-0.031 0.988-0.1s0.594-0.175 0.831-0.337c0.238-0.156 0.431-0.369 0.575-0.637s0.213-0.619 0.213-1.038c0-0.825-0.231-1.413-0.694-1.769z">
            </path>
            <path
                d="M29 0h-26c-1.65 0-3 1.35-3 3v26c0 1.65 1.35 3 3 3h26c1.65 0 3-1.35 3-3v-26c0-1.65-1.35-3-3-3zM20.975 8.419h6.481v1.581h-6.481v-1.581zM16.925 21.45c-0.313 0.594-0.738 1.075-1.262 1.45-0.531 0.375-1.137 0.65-1.819 0.831-0.675 0.181-1.375 0.269-2.088 0.269h-7.756v-15.994h7.537c0.762 0 1.456 0.069 2.088 0.2 0.625 0.131 1.162 0.356 1.613 0.662 0.444 0.306 0.794 0.713 1.044 1.219 0.244 0.5 0.369 1.131 0.369 1.875 0 0.806-0.181 1.475-0.55 2.012s-0.906 0.975-1.631 1.319c0.988 0.281 1.713 0.781 2.194 1.487 0.488 0.712 0.725 1.569 0.725 2.569 0.006 0.819-0.15 1.519-0.462 2.1zM29.981 18.975h-8.356c0 0.913 0.313 1.781 0.788 2.25 0.475 0.462 1.163 0.7 2.056 0.7 0.644 0 1.194-0.163 1.663-0.488 0.462-0.325 0.744-0.669 0.85-1.025h2.8c-0.45 1.394-1.131 2.387-2.063 2.988-0.919 0.6-2.044 0.9-3.35 0.9-0.913 0-1.731-0.15-2.469-0.438-0.738-0.294-1.35-0.706-1.869-1.244-0.506-0.538-0.894-1.181-1.175-1.931-0.275-0.744-0.419-1.575-0.419-2.469 0-0.869 0.144-1.675 0.425-2.425 0.288-0.75 0.688-1.4 1.212-1.938 0.525-0.544 1.15-0.975 1.875-1.294 0.725-0.313 1.525-0.469 2.413-0.469 0.981 0 1.837 0.188 2.575 0.575 0.731 0.381 1.331 0.894 1.806 1.537s0.806 1.375 1.019 2.2c0.206 0.813 0.275 1.669 0.219 2.569z">
            </path>
            <path
                d="M24.269 14.494c-0.506 0-0.931 0.088-1.262 0.262s-0.6 0.387-0.806 0.637c-0.206 0.256-0.344 0.525-0.425 0.819-0.081 0.281-0.131 0.538-0.144 0.762h5.175c-0.075-0.813-0.356-1.412-0.731-1.831-0.387-0.425-1.025-0.65-1.806-0.65z">
            </path>
        </symbol>

        <symbol id="icon-codepen" viewBox="0 0 32 32">
            <title>Codepen</title>
            <path
                d="M29.555 11.501l-14-9.333c-0.336-0.224-0.774-0.224-1.109 0l-14 9.333c-0.278 0.185-0.445 0.498-0.445 0.832v9.333c0 0.334 0.167 0.647 0.445 0.832l14 9.333c0.168 0.112 0.361 0.168 0.555 0.168s0.387-0.056 0.555-0.168l14-9.333c0.278-0.185 0.445-0.498 0.445-0.832v-9.333c0-0.334-0.167-0.647-0.445-0.832zM15 20.465l-5.197-3.465 5.197-3.465 5.197 3.465-5.197 3.465zM16 11.798v-6.93l11.197 7.465-5.197 3.465-6-4zM14 11.798l-6 4-5.197-3.465 11.197-7.465v6.93zM6.197 17l-4.197 2.798v-5.596l4.197 2.798zM8 18.202l6 4v6.93l-11.197-7.465 5.197-3.465zM16 22.202l6-4 5.197 3.465-11.197 7.465v-6.93zM23.803 17l4.197-2.798v5.596l-4.197-2.798z">
            </path>
        </symbol>

        <symbol id="icon-folder-open" viewBox="0 0 32 32">
            <title>File upload</title>
            <path d="M26 30l6-16h-26l-6 16zM4 12l-4 18v-26h9l4 4h13v4z"></path>
        </symbol>

        <symbol id="icon-file-picture" viewBox="0 0 32 32">
            <title>Picture file</title>
            <path d="M26 28h-20v-4l6-10 8.219 10 5.781-4v8z"></path>
            <path d="M26 15c0 1.657-1.343 3-3 3s-3-1.343-3-3 1.343-3 3-3c1.657 0 3 1.343 3 3z"></path>
            <path
                d="M28.681 7.159c-0.694-0.947-1.662-2.053-2.724-3.116s-2.169-2.030-3.116-2.724c-1.612-1.182-2.393-1.319-2.841-1.319h-15.5c-1.378 0-2.5 1.121-2.5 2.5v27c0 1.378 1.122 2.5 2.5 2.5h23c1.378 0 2.5-1.122 2.5-2.5v-19.5c0-0.448-0.137-1.23-1.319-2.841zM24.543 5.457c0.959 0.959 1.712 1.825 2.268 2.543h-4.811v-4.811c0.718 0.556 1.584 1.309 2.543 2.268zM28 29.5c0 0.271-0.229 0.5-0.5 0.5h-23c-0.271 0-0.5-0.229-0.5-0.5v-27c0-0.271 0.229-0.5 0.5-0.5 0 0 15.499-0 15.5 0v7c0 0.552 0.448 1 1 1h7v19.5z">
            </path>
        </symbol>
    </defs>
</svg>